<svg width="24" height="25" viewBox="0 0 24 25" fill="none" xmlns="http://www.w3.org/2000/svg">
<rect y="0.5" width="24" height="24" rx="12" fill="url(#paint0_linear_112_164)"/>
<g clip-path="url(#clip0_112_164)">
<path d="M15.5 7.83334H8.5C7.85567 7.83334 7.33333 8.35567 7.33333 9V16C7.33333 16.6443 7.85567 17.1667 8.5 17.1667H15.5C16.1443 17.1667 16.6667 16.6443 16.6667 16V9C16.6667 8.35567 16.1443 7.83334 15.5 7.83334Z" stroke="white" stroke-linecap="round" stroke-linejoin="round"/>
<path d="M13.75 10.75H10.25V14.25H13.75V10.75Z" stroke="white" stroke-linecap="round" stroke-linejoin="round"/>
<path d="M10.25 6.08334V7.83334" stroke="white" stroke-linecap="round" stroke-linejoin="round"/>
<path d="M13.75 6.08334V7.83334" stroke="white" stroke-linecap="round" stroke-linejoin="round"/>
<path d="M10.25 17.1667V18.9167" stroke="white" stroke-linecap="round" stroke-linejoin="round"/>
<path d="M13.75 17.1667V18.9167" stroke="white" stroke-linecap="round" stroke-linejoin="round"/>
<path d="M16.6667 10.75H18.4167" stroke="white" stroke-linecap="round" stroke-linejoin="round"/>
<path d="M16.6667 13.6667H18.4167" stroke="white" stroke-linecap="round" stroke-linejoin="round"/>
<path d="M5.58333 10.75H7.33333" stroke="white" stroke-linecap="round" stroke-linejoin="round"/>
<path d="M5.58333 13.6667H7.33333" stroke="white" stroke-linecap="round" stroke-linejoin="round"/>
</g>
<defs>
<linearGradient id="paint0_linear_112_164" x1="12" y1="0.5" x2="12" y2="24.5" gradientUnits="userSpaceOnUse">
<stop stop-color="#1365E8"/>
<stop offset="1" stop-color="#A1DEFF"/>
</linearGradient>
<clipPath id="clip0_112_164">
<rect width="14" height="14" fill="white" transform="translate(5 5.5)"/>
</clipPath>
</defs>
</svg>
