<svg width="24" height="25" viewBox="0 0 24 25" fill="none" xmlns="http://www.w3.org/2000/svg">
<rect y="0.5" width="24" height="24" rx="12" fill="url(#paint0_linear_115_19)"/>
<path d="M11.8011 10.3636C11.7415 9.85985 11.4995 9.46875 11.0753 9.19034C10.651 8.91193 10.1307 8.77273 9.5142 8.77273C9.06345 8.77273 8.66903 8.84564 8.33097 8.99148C7.99621 9.13731 7.73438 9.33783 7.54545 9.59304C7.35985 9.84825 7.26705 10.1383 7.26705 10.4631C7.26705 10.7348 7.33168 10.9685 7.46094 11.1641C7.59351 11.3563 7.76255 11.517 7.96804 11.6463C8.17353 11.7723 8.38897 11.8767 8.61435 11.9595C8.83973 12.0391 9.04688 12.1037 9.2358 12.1534L10.2699 12.4318C10.535 12.5014 10.83 12.5975 11.1548 12.7202C11.483 12.8428 11.7962 13.0102 12.0945 13.2223C12.3961 13.4311 12.6446 13.6996 12.8402 14.0277C13.0357 14.3558 13.1335 14.7585 13.1335 15.2358C13.1335 15.786 12.9893 16.2831 12.701 16.7273C12.416 17.1714 11.9983 17.5244 11.4482 17.7862C10.9013 18.0481 10.2367 18.179 9.45455 18.179C8.72538 18.179 8.09399 18.0613 7.56037 17.826C7.03007 17.5907 6.61245 17.2625 6.30753 16.8416C6.00592 16.4207 5.83523 15.9318 5.79545 15.375H7.06818C7.10133 15.7595 7.23059 16.0777 7.45597 16.3295C7.68466 16.5781 7.97301 16.7637 8.32102 16.8864C8.67235 17.0057 9.05019 17.0653 9.45455 17.0653C9.92519 17.0653 10.3478 16.9891 10.7223 16.8366C11.0968 16.6809 11.3935 16.4654 11.6122 16.1903C11.831 15.9119 11.9403 15.5871 11.9403 15.2159C11.9403 14.8778 11.8459 14.6027 11.657 14.3906C11.468 14.1785 11.2195 14.0062 10.9112 13.8736C10.603 13.741 10.2699 13.625 9.91193 13.5256L8.65909 13.1676C7.86364 12.9389 7.2339 12.6125 6.76989 12.1882C6.30587 11.764 6.07386 11.2088 6.07386 10.5227C6.07386 9.95265 6.22798 9.45549 6.53622 9.03125C6.84777 8.60369 7.26539 8.27225 7.78906 8.03693C8.31605 7.7983 8.90436 7.67898 9.55398 7.67898C10.2102 7.67898 10.7936 7.79664 11.304 8.03196C11.8144 8.26397 12.2188 8.58215 12.517 8.98651C12.8187 9.39086 12.9777 9.8499 12.9943 10.3636H11.8011ZM15.0016 18V10.3636H16.1749V18H15.0016ZM15.5982 9.09091C15.3695 9.09091 15.1723 9.01302 15.0066 8.85724C14.8442 8.70147 14.763 8.5142 14.763 8.29545C14.763 8.0767 14.8442 7.88944 15.0066 7.73366C15.1723 7.57789 15.3695 7.5 15.5982 7.5C15.8269 7.5 16.0224 7.57789 16.1848 7.73366C16.3506 7.88944 16.4334 8.0767 16.4334 8.29545C16.4334 8.5142 16.3506 8.70147 16.1848 8.85724C16.0224 9.01302 15.8269 9.09091 15.5982 9.09091Z" fill="white"/>
<defs>
<linearGradient id="paint0_linear_115_19" x1="12" y1="0.5" x2="12" y2="24.5" gradientUnits="userSpaceOnUse">
<stop stop-color="#1365E8"/>
<stop offset="1" stop-color="#A1DEFF"/>
</linearGradient>
</defs>
</svg>
