<svg width="14" height="15" viewBox="0 0 14 15" fill="none" xmlns="http://www.w3.org/2000/svg">
<path d="M6.41669 3H2.33335C2.02393 3 1.72719 3.12292 1.5084 3.34171C1.2896 3.5605 1.16669 3.85725 1.16669 4.16667V12.3333C1.16669 12.6428 1.2896 12.9395 1.5084 13.1583C1.72719 13.3771 2.02393 13.5 2.33335 13.5H10.5C10.8094 13.5 11.1062 13.3771 11.325 13.1583C11.5438 12.9395 11.6667 12.6428 11.6667 12.3333V8.25" stroke="white" stroke-linecap="round" stroke-linejoin="round"/>
<path d="M10.7917 2.12498C11.0238 1.89292 11.3385 1.76254 11.6667 1.76254C11.9949 1.76254 12.3096 1.89292 12.5417 2.12498C12.7738 2.35704 12.9041 2.67179 12.9041 2.99998C12.9041 3.32817 12.7738 3.64292 12.5417 3.87498L7.00002 9.41665L4.66669 9.99998L5.25002 7.66665L10.7917 2.12498Z" stroke="white" stroke-linecap="round" stroke-linejoin="round"/>
</svg>
