<svg width="373" height="178" viewBox="0 0 373 178" fill="none" xmlns="http://www.w3.org/2000/svg">
<path d="M10.5 9.99994C10.5 9.7238 10.2761 9.49994 10 9.49994C9.72386 9.49994 9.5 9.7238 9.5 9.99994H10.5ZM10.5 168L10.5 9.99994H9.5L9.5 168H10.5Z" fill="#1A1A1A"/>
<path d="M363 168.104C363.276 168.104 363.5 167.88 363.5 167.604C363.5 167.328 363.276 167.104 363 167.104V168.104ZM10.5567 168.104H363V167.104H10.5567V168.104Z" fill="#1A1A1A"/>
<path d="M10.5577 166.419L64.2402 144.96L91 119.5L128.5 108L171.605 80.776L228 69L279.5 49L333 26" stroke="#1365E8" stroke-linecap="round"/>
</svg>
