<svg width="25" height="24" viewBox="0 0 25 24" fill="none" xmlns="http://www.w3.org/2000/svg">
<g clip-path="url(#clip0_185_20)">
<path d="M12.75 0.000518799C6.12328 0.000518799 0.75 5.37274 0.75 12C0.75 18.6272 6.12275 23.9995 12.75 23.9995C19.3778 23.9995 24.75 18.6272 24.75 12C24.75 5.37274 19.3778 0.000518799 12.75 0.000518799ZM12.75 3.5885C14.9427 3.5885 16.7196 5.36589 16.7196 7.55758C16.7196 9.74979 14.9427 11.5267 12.75 11.5267C10.5583 11.5267 8.78145 9.74979 8.78145 7.55758C8.78145 5.36589 10.5583 3.5885 12.75 3.5885ZM12.7474 20.8622C10.5604 20.8622 8.55743 20.0657 7.0125 18.7474C6.63615 18.4264 6.41898 17.9557 6.41898 17.4618C6.41898 15.239 8.21798 13.4601 10.4413 13.4601H15.0598C17.2836 13.4601 19.0757 15.239 19.0757 17.4618C19.0757 17.9562 18.8596 18.4259 18.4828 18.7469C16.9384 20.0657 14.9348 20.8622 12.7474 20.8622Z" fill="#1365E8"/>
</g>
<defs>
<clipPath id="clip0_185_20">
<rect width="24" height="24" fill="white" transform="translate(0.75)"/>
</clipPath>
</defs>
</svg>
