<svg width="24" height="24" viewBox="0 0 24 24" fill="none" xmlns="http://www.w3.org/2000/svg">
<rect width="24" height="24" rx="12" fill="#E7E7E7"/>
<path d="M17.6667 18.375V16.9583C17.6667 16.2069 17.3682 15.4862 16.8368 14.9549C16.3055 14.4235 15.5848 14.125 14.8333 14.125H9.16668C8.41523 14.125 7.69456 14.4235 7.16321 14.9549C6.63185 15.4862 6.33334 16.2069 6.33334 16.9583V18.375" stroke="#828282" stroke-linecap="round" stroke-linejoin="round"/>
<path d="M12 11.2917C13.5648 11.2917 14.8333 10.0231 14.8333 8.45833C14.8333 6.89353 13.5648 5.625 12 5.625C10.4352 5.625 9.16666 6.89353 9.16666 8.45833C9.16666 10.0231 10.4352 11.2917 12 11.2917Z" stroke="#828282" stroke-linecap="round" stroke-linejoin="round"/>
</svg>
