<svg width="25" height="24" viewBox="0 0 25 24" fill="none" xmlns="http://www.w3.org/2000/svg">
<rect x="0.5" width="24" height="24" rx="12" fill="url(#paint0_linear_107_150)"/>
<path d="M18.2964 18.2222H6.62972C6.41505 18.2222 6.24083 18.048 6.24083 17.8333C6.24083 17.6187 6.41505 17.4444 6.62972 17.4444H18.2964C18.5111 17.4444 18.6853 17.6187 18.6853 17.8333C18.6853 18.048 18.5111 18.2222 18.2964 18.2222Z" fill="white"/>
<path d="M10.0092 15.3188C10.0092 16.0631 9.40561 16.6667 8.66128 16.6667H7.66242C6.91808 16.6667 6.31453 16.0631 6.31453 15.3188V11.4034C6.31472 10.6591 6.91828 10.0555 7.66261 10.0555H8.66147C9.40581 10.0555 10.0094 10.6591 10.0094 11.4034L10.0092 15.3188ZM9.23139 11.4034C9.23139 11.0886 8.97608 10.8333 8.66128 10.8333H7.66242C7.34761 10.8333 7.09231 11.0886 7.09231 11.4034V15.319C7.0925 15.6338 7.34781 15.8889 7.66261 15.8889H8.66147C8.97628 15.8889 9.23158 15.6336 9.23158 15.3188L9.23139 11.4034Z" fill="white"/>
<path d="M14.4814 15.3188C14.4814 16.0631 13.8778 16.6667 13.1335 16.6667H12.1346C11.3903 16.6667 10.7867 16.0631 10.7867 15.3188V9.26455C10.7867 8.52021 11.3903 7.91666 12.1346 7.91666H13.1335C13.8778 7.91666 14.4814 8.52021 14.4814 9.26455V15.3188ZM13.7036 9.26455C13.7036 8.94974 13.4483 8.69443 13.1335 8.69443H12.1346C11.8198 8.69443 11.5645 8.94974 11.5645 9.26455V15.319C11.5645 15.6338 11.8198 15.8891 12.1346 15.8891H13.1335C13.4483 15.8891 13.7036 15.6338 13.7036 15.319V9.26455Z" fill="white"/>
<path d="M18.7592 15.3188C18.7592 16.0631 18.1556 16.6667 17.4113 16.6667H16.4124C15.6681 16.6667 15.0645 16.0631 15.0645 15.3188V7.12566C15.0647 6.38133 15.6683 5.77777 16.4126 5.77777H17.4115C18.1558 5.77777 18.7594 6.38133 18.7594 7.12566L18.7592 15.3188ZM17.9814 7.12566C17.9814 6.81085 17.7263 6.55555 17.4115 6.55555H16.4126C16.0978 6.55555 15.8425 6.81085 15.8425 7.12566V15.319C15.8425 15.6338 16.0978 15.8891 16.4126 15.8891H17.4115C17.7263 15.8891 17.9816 15.6338 17.9816 15.319L17.9814 7.12566Z" fill="white"/>
<defs>
<linearGradient id="paint0_linear_107_150" x1="12.5" y1="0" x2="12.5" y2="24" gradientUnits="userSpaceOnUse">
<stop stop-color="#1365E8"/>
<stop offset="1" stop-color="#A1DEFF"/>
</linearGradient>
</defs>
</svg>
